<?xml version="1.0" encoding="UTF-8" standalone="no"?>
<!DOCTYPE svg PUBLIC "-//W3C//DTD SVG 1.1//EN" "http://www.w3.org/Graphics/SVG/1.1/DTD/svg11.dtd">
<svg xmlns="http://www.w3.org/2000/svg" version="1.1" viewBox="0 0 1386 962">
<path fill="#00DFFF" d="M 1054.81,0.00 Q 1059.06,0.00 1063.31,0.00 Q 1063.84,0.71 1064.00,2.50 Q 1090.21,295.88 1116.52,589.46 A 1.63,1.63 -4.5 0 1 1115.00,591.23 Q 1044.53,595.90 977.31,616.56 Q 919.47,634.34 868.07,668.66 Q 859.46,674.41 851.76,680.25 Q 786.92,729.42 749.56,802.31 Q 717.52,864.80 710.21,934.75 L 709.79,934.75 Q 709.72,624.50 709.75,314.26 Q 709.75,311.23 710.77,308.42 Q 749.15,202.58 828.30,123.21 Q 835.46,116.03 842.74,109.37 Q 897.29,59.51 964.35,27.89 Q 985.62,17.86 1010.69,9.69 Q 1033.08,2.39 1054.81,0.00 Z"/>
<path fill="#00DFFF" d="M 788.70,847.96 Q 748.25,886.77 720.81,934.81 Q 715.34,944.40 710.14,956.23 Q 709.89,956.79 709.77,956.23 Q 709.67,955.77 709.80,955.26 Q 723.16,901.12 751.14,852.91 Q 814.64,743.47 929.62,690.45 Q 975.55,669.27 1025.75,658.50 Q 1061.67,650.79 1097.00,647.77 Q 1140.03,644.08 1182.60,645.66 A 0.81,0.81 88.5 0 0 1183.44,644.77 L 1130.34,137.61 A 0.85,0.85 7.6 0 1 1131.50,136.73 Q 1178.25,154.95 1220.07,179.00 A 1.01,1.00 -78.6 0 1 1220.56,179.75 L 1290.75,746.60 A 0.74,0.74 -87.0 0 1 1289.85,747.41 Q 1212.39,729.46 1132.50,726.75 Q 1091.55,725.36 1045.26,730.80 Q 993.56,736.88 944.27,753.56 Q 855.91,783.47 788.70,847.96 Z"/>
<path fill="#00DFFF" d="M 643.06,902.94 Q 610.57,871.02 572.93,845.36 Q 507.96,801.08 434.00,776.00 Q 387.19,760.13 337.47,751.66 Q 260.89,738.61 183.25,742.01 Q 133.14,744.20 82.47,751.98 A 0.61,0.60 89.7 0 1 81.78,751.29 L 168.17,165.34 A 1.14,1.13 88.9 0 1 169.08,164.39 Q 216.90,154.77 265.01,152.41 Q 275.06,151.92 285.00,151.84 Q 467.32,150.35 614.06,256.94 Q 645.84,280.02 675.82,308.46 A 1.19,1.16 22.2 0 1 676.19,309.31 L 676.25,939.00 Q 676.25,940.40 675.40,939.29 Q 660.66,920.24 643.06,902.94 ZM 676.01,309.43 A 0.13 0.13 0.0 0 0 675.88,309.30 L 675.88,309.30 A 0.13 0.13 0.0 0 0 675.75,309.43 L 675.75,911.83 A 0.13 0.13 0.0 0 0 675.88,911.96 L 675.88,911.96 A 0.13 0.13 0.0 0 0 676.01,911.83 L 676.01,309.43 Z"/>
<path fill="#00DFFF" d="M 0.00,925.19 Q 0.00,924.69 0.00,924.19 Q 2.73,906.94 16.75,815.50 Q 55.06,565.59 93.36,315.68 A 0.95,0.93 -8.0 0 1 93.90,314.98 Q 103.37,310.62 107.31,307.56 Q 113.90,302.45 123.19,299.93 A 0.38,0.38 86.0 0 1 123.67,300.35 L 49.57,806.26 A 0.35,0.35 -1.8 0 0 49.99,806.65 Q 86.93,799.22 124.26,794.06 Q 194.55,784.34 265.50,786.30 Q 329.36,788.06 391.83,801.35 Q 481.12,820.35 560.12,865.92 Q 593.17,884.98 626.31,911.94 Q 653.32,933.91 675.38,960.84 Q 676.72,962.48 674.78,961.21 Q 659.43,951.16 643.29,942.42 Q 607.48,923.04 569.58,908.14 Q 451.36,861.68 327.75,858.00 Q 236.42,855.28 147.45,875.72 Q 71.96,893.06 1.45,925.07 Q 1.36,925.11 0.99,925.39 Q 0.55,925.72 0.00,925.19 Z"/>
<path fill="#00DFFF" d="M 1336.33,805.91 L 1262.22,300.29 Q 1262.11,299.54 1262.81,299.83 Q 1278.21,306.24 1291.85,314.61 A 1.70,1.69 -78.8 0 1 1292.64,315.80 L 1385.86,924.73 Q 1386.02,925.78 1385.06,925.34 Q 1347.85,908.48 1309.78,895.66 Q 1214.37,863.56 1114.50,858.50 Q 1068.19,856.15 1020.50,860.28 Q 873.09,873.05 743.31,942.06 Q 727.91,950.25 711.09,961.38 Q 710.79,961.58 710.49,961.66 Q 709.15,962.01 710.11,960.87 Q 734.28,931.98 763.73,908.47 Q 827.47,857.60 903.67,828.38 Q 963.96,805.26 1027.77,795.10 Q 1099.85,783.61 1172.81,786.40 Q 1253.76,789.50 1335.42,806.76 A 0.76,0.76 -87.9 0 0 1336.33,805.91 Z"/>
<rect fill="#00DFFF" x="675.75" y="309.30" width="0.26" height="602.66" rx="0.13"/>
<path fill="#00DFFF" d="M 709.79,934.75 L 710.21,934.75 Q 710.00,939.79 709.79,934.75 Z"/>
</svg>
